<svg xmlns="http://www.w3.org/2000/svg" viewBox="0 0 576 512"><!--!Font Awesome Free 6.5.1 by @fontawesome - https://fontawesome.com License - https://fontawesome.com/license/free Copyright 2024 Fonticons, Inc.--><path d="M288 32C133.3 32 7.8 132.3 7.8 256S133.3 480 288 480s280.2-100.3 280.2-224S442.7 32 288 32zm-85.4 357.2L64.1 390.6l77.3-290.7h133.4c63.2 0 84.9 28.7 78 72.8a60.2 60.2 0 0 1 -1.5 6.9 77.4 77.4 0 0 0 -17.2-1.9c-42.4 0-76.7 33.9-76.7 75.7 0 37.1 27.1 68 62.9 74.5-18.2 37.2-56.2 60.9-117.7 61.5zM358 207.1h32l-22.2 90.3h-35.4l-11.2-35.6-7.8 35.6h-37.8l26.6-90.3h31.3l15 36.8zm145.9 182.1H306.8L322.6 328a78.8 78.8 0 0 0 11.5 .8c42.3 0 76.7-33.9 76.7-75.7 0-32.7-21-60.5-50.4-71.1l21.3-82.4h92.5l-53.1 205.4h103.9zM211.7 269.4H187l-13.8 56.5h24.7c16.1 0 32.1-3.2 37.9-26.7 5.6-22.3-8-29.8-24.1-29.8zM233 170h-21.3L200 217.7h21.4c18 0 35.4-14.6 39.2-30.1C265.2 168.7 251.1 170 233 170z"/></svg>